<?xml version="1.0" encoding="UTF-8"?>
<svg id="_레이어_1" data-name="레이어 1" xmlns="http://www.w3.org/2000/svg" viewBox="0 0 377.830708661418612 71.156460398008676">
  <path d="M34.554463626713186,1.01942669892378C15.500158870443556,1.01942669892378,0,16.524344149911485,0,35.578659330916707c0,19.053456917180483,15.500158870443556,34.558374368171826,34.554463626713186,34.558374368171826,19.054410062299212,0,34.556466242254828-15.504917450991343,34.556466242254828-34.558374368171826C69.110929868968014,16.524344149911485,53.608873689012398,1.01942669892378,34.554463626713186,1.01942669892378ZM32.2439324716388,65.426214288419033c-14.665821517984114-1.121560094114102-26.408777898273001-12.869189244112931-27.534057135622788-27.536822652395131h5.489073974737948c1.09667044318121,11.651312876298107,10.395482174884819,20.952985487418118,22.04498316088484,22.046795051179288v5.490027601215843ZM32.2439324716388,55.288211261061406c-9.09960929812587-1.05852538428735-16.338482350455706-8.29750393575523-17.398914987686112-17.398819625037504h17.398914987686112v17.398819625037504ZM32.2439324716388,33.26811775110491H14.845017483952688c1.060432637230406-9.102364678402409,8.299305689560242-16.34134322987029,17.398914987686112-17.398819625038414v17.398819625038414ZM32.2439324716388,11.220369073451366c-11.649500986000021,1.094667827588637-20.948312717703629,10.39538681223712-22.04498316088484,22.047748677653544h-5.489073974737948c1.125279237349787-14.668682397402335,12.868235617638675-26.415357920931456,27.534057135622788-27.53691801504192v5.489169337388375ZM36.866054137249193,15.869298126066496c9.09950356911213,1.057476395168123,16.340389190604583,8.296454946636004,17.400821801048551,17.398819625038414h-17.400821801048551V15.869298126066496ZM36.866054137249193,37.889391636023902h17.400821801048551c-1.060432610443968,9.101315689282274-8.30131823193642,16.340294240750154-17.400821801048551,17.398819625037504v-17.398819625037504ZM36.866054137249193,65.426214288419033v-5.490027601215843c11.649500691709363-1.09380956376117,20.950124078755834-10.395482174881181,22.046889856877897-22.046795051179288h5.488978473428688c-1.12527920892262,14.6676334082822-12.869093556365442,26.415262558281029-27.535868330306585,27.536822652395131ZM58.91294399412709,33.26811775110491c-1.096765778122062-11.652361865416424-10.397389165168534-20.953080850064907-22.046889856877897-22.047748677653544v-5.489169337388375c14.666774773941142,1.121560094110464,26.410589121383964,12.868235617639584,27.535868330306585,27.53691801504192h-5.488978473428688Z"/>
  <g>
    <path d="M150.070096181458212,22.377608074431009c0-5.282995294067405-1.579205398285922-14.349122166519919-8.112500195182292-14.349122166519919-1.240668009162619,0-2.194294457402066.264059170187465-3.323279755462863.967930869415795v24.382226281921248c1.80510644986316,1.144351766797627,2.758732898103517,1.495286308614595,3.999400907264317,1.495286308614595,4.44962100749126,0,7.436379043380839-5.014167991516842,7.436379043380839-12.49632129343172Z"/>
    <path d="M160.038925620788177,53.885903533498094c0,4.139692516389914,1.352242303605635,7.130265133622743,3.152689037883647,7.130265133622743,1.35691507320189,0,2.709252739450676-1.407552673161263,4.227330682406318-4.574546187774104v-15.228461136657643c-5.180957130645766,4.046237122101957-7.380019720289965,7.306686031000936-7.380019720289965,12.672742190809004Z"/>
    <path d="M82.42412726227758,71.156460398008676h97.941837024228334V0h-97.941837024228334v71.156460398008676ZM164.886781033064835,23.521101577407535c4.222657912809154,0,7.03776318801647,3.343414411991034,7.03776318801647,9.593482311651314v23.767137207266387c0,2.902838981779496.509236523361324,4.134829021382757,1.467631103845633,4.134829021382757.620810817803431,0,1.069968874922779-.351792805642617,2.028363455407089-1.496144572440244v1.496144572440244c-1.407552637603658,3.347228917882603-3.1574571701276,5.194403394787514-4.848236862857448,5.194403394787514-2.022641696719802,0-3.097378703887443-2.555623583200941-3.097378703887443-7.394419666456088h-.111574294443926c-1.74513640027908,5.015216980638797-3.828810189686919,7.394419666456088-6.310146208008518,7.394419666456088-3.320527292773477,0-5.686474510859625-3.963176256358565-5.686474510859625-9.504699687076936,0-4.843468852970545,1.292163837369117-9.242547769834346,7.15410561470344-13.99732936088003l4.898779064611517-3.959361750476091v-6.162429626848279c0-4.754686228395258-1.180589542920643-7.217903406429286-3.435916093009837-7.217903406429286-1.916789160965891,0-3.435916093012565,2.286796280649469-3.435916093012565,5.106669759336,0,1.407552673158534.505422017567071,2.727276348218766.505422017567071,4.047190748572575,0,1.75934547880388-1.014658540927485,3.259399919780662-2.305868751845082,3.259399919780662-1.467631103842905,0-2.48228964477039-1.8518472466194-2.48228964477039-4.579314320134472,0-5.370728929520737,3.833578321927234-9.682074210932115,8.621736718543616-9.682074210932115ZM128.438319917499939,63.479767295740203c4.115851750607362,0,4.903547196854561-1.144351766797627,4.903547196854561-8.010462367583386V14.367241069496231c0-6.866015238138061-1.069968874927326-8.009508741110039-4.903547196854561-7.921679743009008v-1.495286308614595h15.098767554995902c7.65857400582081,0,12.843441004905799,6.77828160268291,12.843441004905799,16.635918447173026,0,9.681215947107376-4.847283236406838,16.723747445273148-11.435888367302141,16.723747445273148-2.138984123404953,0-3.889842282374047-.43962180374001-6.311099834457309-1.852037971912978v19.011401989750993c0,6.778472327980126.791509952038723,8.102964135399816,5.0704318252956,8.010462367583386v1.500054440977692h-15.265652183437851v-1.500054440977692ZM87.373448528647714,63.479767295740203c3.606519864601978,0,4.509699473730507-1.231990039603261,4.509699473730507-8.010462367583386V14.367241069496231c0-6.426393434394413-.791605314684602-7.921679743009008-4.509699473730507-7.921679743009008v-1.495286308614595h9.801277272374136l10.251484318587245,44.272871879159538h.11634242668606l10.250435329493484-44.272871879159538h9.353263566989881v1.495286308614595c-3.269126827213768,0-4.055868647012176,1.495286308614595-4.055868647012176,7.921679743009008v41.102063858660586c0,6.602909694425762.898316114242334,8.010462367583386,4.055868647012176,8.010462367583386v1.500054440977692h-14.140372974513411v-1.500054440977692c3.773499855688897.092501767816429,4.787109407523531-1.055569142223248,4.787109407523531-8.010462367583386V15.071017406076862h-.110525305350166l-11.492152327749864,49.908804330641033h-.676121151803272l-11.380578033304118-48.853139825770086h-.111574294443926v39.342623017209007c0,7.04253149816941.958394580482491,8.010462367583386,4.676584102172455,8.010462367583386v1.500054440977692h-11.325172336662035v-1.500054440977692Z"/>
  </g>
  <rect x="229.790120287107129" y="51.858493653319783" width="3.593264456969337" height="3.222303850008757"/>
  <rect x="250.255897492799704" y="51.858493653319783" width="3.593169094325276" height="18.899827692490362"/>
  <rect x="229.790120287107129" y="57.196894645433531" width="3.593264456969337" height="13.561426700376614"/>
  <path d="M242.185452223984612,68.276889902158473c-2.194294457403885,0-3.222303768605343-1.718434903141315-3.222303768605343-4.288458246075606,0-2.615702050956315,1.106111317312752-4.282641124595102,3.277614102604275-4.282641124595102,1.319723641718156,0,2.245694922959956.898220774291985,2.482194282121782,2.088441974407033h3.518881594009144c-.476813224118814-2.935262281836913-2.644406140971114-4.96839392084803-6.163287734980258-4.96839392084803-4.120524520199979,0-6.76397703472685,3.116451311580022-6.76397703472685,7.162593071036099,0,4.047190748573485,2.666244186639233,7.167456566043256,6.949075928332604,7.167456566043256,3.625687756211846,0,5.871382679171802-2.300147051260865,6.11169654412879-5.181052624178847h-3.467290403157676c-.236499359161826,1.533431367512094-1.269276802609966,2.302054304211197-2.722603509726468,2.302054304211197Z"/>
  <path d="M214.6083872311101,59.363438627920004h-.079150995203236v-2.166543982486473h-3.458803127767169v13.561426700376614h3.593264456969337v-6.607677826785221c0-2.856111284632789,1.690779692729848-4.097637588958605,4.042422514095961-3.861233586470917h.078102006107656v-3.144011116626643c-.207890565714479-.078197370730777-.449158057119348-.105852538428735-.842052153795521-.105852538428735-1.587692673678248,0-2.514712944008352.791414609389903-3.333782700407028,2.323892350421374Z"/>
  <path d="M225.345458137144306,66.743839985237173v-7.172129335758655h2.32484591816683v-2.375483542575239h-2.32484591816683v-4.231240657736635h-3.514208824410161v4.231240657736635h-1.879502366839006v2.375483542575239h1.879502366839006v7.940847635109094c0,2.561345342030108,1.926325425443792,3.246049149165628,3.671461825724691,3.246049149165628,1.426625166568556,0,2.245790285607654-.051495829506166,2.245790285607654-.051495829506166v-2.643357218654273s-.606506421081576.027559805050259-1.055664478200924.027559805050259c-.79150995204327,0-1.34737880872126-.34235190356776-1.34737880872126-1.347474205405888Z"/>
  <path d="M262.520884877856588,56.826124672993501c-3.968039751372999,0-6.685875197515998,3.116451311576384-6.685875197515998,7.139706035693962,0,4.047286111224821,2.53283191051014,7.190343601381755,7.02822710108012,7.190343601381755,3.491226515205199,0,5.634867127711914-2.036946144900867,6.135632722980517-4.440084855177702h-3.542722344707727c-.392894106600579,1.032777469536086-1.213012872805848,1.667034436282847-2.615797413607652,1.667034436282847-2.036946144900867,0-3.204184947033355-1.297027365017129-3.4683394798667-3.389283845310274h9.839517941512895c0-4.838605357967026-2.328755845435808-8.167715372870589-6.690643329875456-8.167715372870589ZM259.428274228084774,62.511550338383131c.314696735869802-1.772696249416185,1.240668040503806-2.912279883850715,3.147920985164092-2.912279883850715,1.639283905940829,0,2.777913913902012,1.190125837467349,2.879951946444635,2.912279883850715h-6.027872931608727Z"/>
  <path d="M198.879463319120987,51.858016840084929l-6.583836998655897,18.899827692490362h3.884120523685851l1.246389767849905-4.018486591758119h6.819287368725782l1.269276802606328,4.018486591758119h3.990926685888553l-6.662987993859133-18.899827692490362h-3.963176156241389ZM198.323499099795299,63.808863791343356l1.690684330085787-5.44997528937165c.319560222807922-1.005122301841766.796373446926737-2.912375246502052.796373446926737-2.912375246502052h.050446839111828s.449158057119348,1.907252944660286.763950147684227,2.912375246502052l1.694498835877312,5.44997528937165h-4.99595359968589Z"/>
  <path d="M277.568903322153346,62.511836426326227c-1.931188920334534-.398520502789324-3.731635654610727-.504468403865758-3.731635654610727-1.666843710991088,0-.981281640026282.9259712812418-1.509590705700248,2.328755786606052-1.509590705700248,1.532477702319738,0,2.458448983561539.528309065673966,2.620565479763172,1.98154044686089h3.246144429809647c-.264154526161292-2.722508215858397-2.245790285604016-4.490531695562822-5.816167707820568-4.490531695562822-3.09251520899852,0-5.523309025564231,1.398016408435069-5.523309025564231,4.333278690271982,0,2.963775713360519,2.375388119922718,3.625687847805239,4.810950068731472,4.1025010839694,1.8519425624836.370865335091366,3.569423795765033.499604908854963,3.569423795765033,1.796536911224393,0,.9536264723356-.898316114242334,1.560228271384403-2.486104150564643,1.560228271384403-1.61162869753025,0-2.722603509730106-.684703807131882-2.963871001131338-2.245885704985994h-3.329109930808045c.213612324405403,2.879951946440997,2.40790678180565,4.783390385211533,6.348291265938315,4.783390385211533,3.384420264806977,0,5.709361545614229-1.639283905937191,5.709361545614229-4.361887484443287,0-3.176434416691336-2.509944811768946-3.810596020790399-4.783294901728368-4.282736487239163Z"/>
  <path d="M374.237444204445637,22.772314071331493v6.977684898047301h-.079150995203236c-.740014123835863-1.13958363443453-1.930139931238955-2.009290977199271-3.83834645416573-2.009290977199271-3.384420264806977,0-5.787463551729161,2.930494149473816-5.787463551729161,7.16268843368016,0,4.394215421852095,2.32389229171531,7.167361203394648,5.736921349969634,7.167361203394648,1.902484764243127,0,3.254727067844215-.875429101597547,4.046237019887485-2.166543982490111h.056263960443175v1.767928117056726h3.458803127770807v-18.899827692489453h-3.593264456972975ZM371.060914505356777,39.056344350216932c-1.851942562479962,0-2.879951873685059-1.532477741038747-2.879951873685059-4.15294792435725,0-2.509944875177098,1.005122276445036-4.255176682188903,2.98675803588776-4.255176682188903,2.301100619606586,0,3.147920905645151,1.745231807011805,3.147920905645151,4.33804682263326,0,2.487153202489026-1.110974812203494,4.070077783912893-3.254727067847853,4.070077783912893Z"/>
  <path d="M223.234033818094758,40.167700641070951h.050542201755889c.079150995206874.606506436401105.213612324405403,1.240668040503806.42150289012352,1.504822573340789h3.463571260010212v-.134461332603678c-.319464860160224-.235545738665678-.476813224118814-.842052175066783-.476813224118814-1.874829644602869v-6.903302033205364c0-3.17166628432642-1.639283864526078-4.991185593535192-5.708407919169986-4.991185593535192-3.968993277580012,0-5.737016712613695,2.082720215574227-5.843822874820034,4.462876527864864h3.194648601605877c.10680616220634-1.295978375899722.925971281245438-1.903343076126475,2.62056547976681-1.903343076126475,1.509590667566954,0,2.278213584846526.63511523057241,2.278213584846526,1.611628738239233,0,1.032777469534267-1.032777443444502,1.217685642519427-3.282382234843681,1.537245873398206-3.014413202887226.421502900771884-5.445207019456575,1.375129373103846-5.445207019456575,4.361792121794679,0,2.698762916697888,1.953980592446896,4.15304328700222,4.731894436172297,4.15304328700222,2.328755786602414,0,3.306222896051622-.796278104397061,3.995694818127959-1.824287441566412ZM220.108999947213306,39.482043207462084c-1.269276802609966,0-2.11609708864853-.449158068466204-2.11609708864853-1.722249409027427,0-1.268227845553156.925971281238162-1.689826108973648,2.805569010724867-2.116097142104081.898316114242334-.20779520832366,1.879597729479428-.420549274298537,2.51471294401199-.791414609386266v2.037804408722877c0,1.324682532717816-1.139583605647204,2.591956751794896-3.204184866088326,2.591956751794896Z"/>
  <path d="M297.450775053588586,27.740421904236428c-4.203585383842437,0-7.083537257531134,3.116451311576384-7.083537257531134,7.162688433681978,0,4.047190748574394,2.879951873688697,7.167361203392829,7.083537257531134,7.167361203392829,4.204539010293956,0,7.084395521338593-3.120170454818435,7.084395521338593-7.167361203392829,0-4.046237122105595-2.879856511044636-7.162688433681978-7.084395521338593-7.162688433681978ZM297.450775053588586,39.32030815775488c-2.221949624399713,0-3.439730598802271-1.768977106174134-3.439730598802271-4.417197819836474,0-2.643452581303791,1.217780974402558-4.440084855175883,3.439730598802271-4.440084855175883,2.195152721204067,0,3.44068422525379,1.796632273872092,3.44068422525379,4.440084855175883,0,2.64822071366234-1.245531504049723,4.417197819836474-3.44068422525379,4.417197819836474Z"/>
  <path d="M269.021930917151622,34.824531516596835h4.657511573204829c3.967944288484432,0,6.315772604055383-2.403043347627317,6.315772604055383-5.972467233563293,0-1.746090070839273-.634161588081042-3.228025608840653-1.689826066281967-4.311345281410468-1.107160306408332-1.138630007964821-2.745490544486529-1.768023479700787-4.9455067605777-1.768023479700787h-8.296454737050226v18.899827692489453h3.958503386649681v-6.847991697814905ZM269.021930917151622,26.09703740446821h4.023349985127425c1.903343028043309,0,3.014317840243166,1.008936807726059,3.014317840243166,2.777913913902012,0,1.722249409029246-1.055664478200924,2.833224249296109-3.069723536886158,2.833224249296109h-3.967944288484432v-5.61113816319812Z"/>
  <path d="M356.573326141038706,27.740421904236428c-3.967944288484432,0-6.690643160854961,3.116451311576384-6.690643160854961,7.139801398345298,0,4.047190748572575,2.537599978764774,7.190248238729509,7.032995055775245,7.190248238729509,3.49122642700604,0,5.630210550414631-2.036946144897229,6.134678941532911-4.440084855174064h-3.541768628769205c-.397662228915578,1.032777469536086-1.217780974402558,1.667034436282847-2.620565479763172,1.667034436282847-2.033036225002434,0-3.199416733848921-1.297027365017129-3.463475897366152-3.389188482665304h9.834654198060889c0-4.838700720609268-2.32494128081089-8.167810735518287-6.685875028615555-8.167810735518287ZM353.475947437153081,33.425847569629695c.319464860160224-1.772696249419823,1.245436141405662-2.912279883854353,3.147920905641513-2.912279883854353,1.644051996769122,0,2.777913843725401,1.190125837470987,2.884720005928102,2.912279883854353h-6.032640911569615Z"/>
  <path d="M247.76950725430288,39.533348311676491c-1.616396829769656,0-2.727467004613572-.685657433608867-2.963966363775398-2.245790342341934h-3.329109930811683c.208939554810058,2.879951946440997,2.403138649566245,4.783390385215171,6.343523133698909,4.783390385215171,3.385373891254858,0,5.709361545614229-1.639283905937191,5.709361545614229-4.361792121795588,0-3.176529779337216-2.509944811768946-3.810786746084887-4.783390264372429-4.28283184988959-1.930044568594894-.398520502787505-3.731540291966667-.50446840386212-3.731540291966667-1.66684371098745,0-.981281640027191.9259712812418-1.509590705700248,2.328755786602414-1.509590705700248,1.53724583456642,0,2.46321711580822.528309065673056,2.62056547976681,1.981635809504951h3.25091256205269c-.26415452616493-2.722603578506096-2.245790285607654-4.49158068468023-5.816167707820568-4.49158068468023-3.097283341241564,0-5.528172520451335,1.398970034910235-5.528172520451335,4.334232316745329,0,2.962917449532142,2.380346977453883,3.625687847801601,4.811045431375533,4.1025010839694,1.851942562479962.370007071266627,3.574191928004439.499604908854963,3.574191928004439,1.796536911223484,0,.953626472331962-.90308424648174,1.560132908736705-2.486008787916944,1.560132908736705Z"/>
  <path d="M197.185074379016442,30.833318641951337c0-1.537245873400025-.157348367934901-3.916448559219134-.157348367934901-3.916448559219134h.050432309955795s.421612793848908,2.221949680530088.820228659285931,3.597079053632115l3.175466158845666,11.158287990104327h3.676340044850804l3.250912644180062-11.158287990104327c.398505686353019-1.375129373102027.819165139731922-3.597079053632115.819165139731922-3.597079053632115h.05520014429203s-.161162869750115,2.379202685819109-.161162869750115,3.916448559219134v10.838918484517308h3.569423795765033v-18.899827692489453h-5.472752047509857l-2.67110774899993,9.48667614675287c-.662880452993704,2.385019807297795-1.162470669769391,5.10752802315892-1.162470669769391,5.10752802315892h-.055310335395916s-.528309065673966-2.722508215861126-1.190235848109296-5.102855253443522l-2.67206130797058-9.491348916468269h-5.388833252007316v18.899827692489453h3.51411355054006v-10.838918484517308Z"/>
  <rect x="255.279506259485061" y="33.587964069925874" width="7.162688252738008" height="3.087937880056415"/>
  <path d="M240.439839010476135,37.70915623275414c0-3.176529779337216-2.509944811768946-3.810596020791309-4.783390264372429-4.282641124595102-1.930139931238955-.398711228081993-3.726772159723623-.505517392982256-3.726772159723623-1.666939073634239,0-.98128164002992.9259712812418-1.509590705700248,2.323987654363009-1.509590705700248,1.537245834562782,0,2.463217115804582.528309065670328,2.620565479763172,1.981635809504951h3.25091256205269c-.26424988880899-2.722698941153794-2.245885648251715-4.491580684682049-5.815214081369049-4.491580684682049-3.093564198097738,0-5.524358014659811,1.398874672264355-5.524358014659811,4.334136954099449,0,2.963012812178931,2.375483482563141,3.625687847801601,4.811045431371895,4.1025010839694,1.8519425624836.370007071266627,3.569423795765033.499795634146722,3.569423795765033,1.796632273871182,0,.953626472331962-.898316114242334,1.560132908733067-2.486104150564643,1.560132908733067-1.616396829766018,0-2.727371641965874-.685657433605229-2.962917374683457-2.245694979690597h-3.329109930808045c.21265869796116,2.87985658378966,2.403138649569883,4.783295022567472,6.342569507251028,4.783295022567472,3.384420264806977,0,5.709361545614229-1.639283905940829,5.709361545614229-4.361887484443287Z"/>
  <path d="M315.512954318841366,29.749903606732914h-.083078385989211c-.740854886109446-1.138630007963002-1.931093557686836-2.00929097720109-3.834419162350969-2.00929097720109-3.384420350306755,0-5.787559060579952,2.930494149473816-5.787559060579952,7.162593071032461,0,4.394406147147492,2.324941339546058,7.167456566042347,5.732248725180398,7.167456566042347,1.908206571137271,0,3.255680776543159-.875429101601185,4.051845993952156-2.16663934513781h.050655090020882v1.768977106177772h3.458690239502175v-18.9007813189628h-3.58838343973548v6.97768489804912ZM312.336311734758056,39.056248987565596c-1.851829804523732,0-2.88365364758647-1.532477741035109-2.88365364758647-4.15304328700131,0-2.509944875174369,1.004168675364781-4.254985956893506,2.990459809789172-4.254985956893506,2.301213485177868,0,3.148874532093032,1.745041081719137,3.148874532093032,4.33804682263326,0,2.486962477193629-1.111815579748509,4.069982421261557-3.255680694295734,4.069982421261557Z"/>
  <path d="M285.417058265884407,30.277831221817905h-.078197368755355v-2.16663934513781h-3.458803127770807v13.561426700375705h3.592310830521456v-6.607582464136613c0-2.856111284632789,1.689730703641544-4.096779325132957,4.042422514095961-3.861233586470917h.079055632559175v-3.144106479275251c-.208844192165998-.078197370731687-.450111683567229-.105852538429644-.84300578024704-.105852538429644-1.588741662766552,0-2.514712944008352.791509972035783-3.33378270040339,2.32398771307453Z"/>
  <path d="M330.135081852658914,35.935697082159095c0,1.80140040623246-1.03277744344814,3.069723614434224-2.727371641969512,3.069723614434224-1.532477702323376,0-2.250558417850698-.875333738953486-2.250558417850698-2.458449045671841v-8.43663803806885h-3.564560300877929v9.043144474473593c0,2.962917449530323,1.689730703637906,4.889242923639358,4.70414390652877,4.889242923639358,1.902484764239489,0,2.962917374683457-.713312601299549,3.888888655925257-1.953980641806993h.079150995203236v1.583973570544913h3.458803127770807v-13.562380326850871h-3.588496324729931v7.825363469306467Z"/>
  <path d="M342.530032338956516,39.191282496048188c-2.194294457403885,0-3.227071900848387-1.718339540489978-3.227071900848387-4.28836288342427,0-2.615892776252622,1.110879449559434-4.282736487241891,3.282382234847319-4.282736487241891,1.319723641721794,0,2.245694922959956.898316136936046,2.48219428212542,2.088441974407033h3.518881594005506c-.476813224118814-2.935262281836913-2.644406140967476-4.96839392084803-6.16328773497662-4.96839392084803-4.120524520203617,0-6.76397703472685,3.116355948932323-6.76397703472685,7.162688433682888,0,4.047095385925786,2.666244186635595,7.16736120339192,6.949075928328966,7.16736120339192,3.625592393567786,0,5.871382679171802-2.300051688613166,6.107977400981326-5.180957261526601h-3.463571260010212c-.236499359161826,1.532477741034199-1.269276802606328,2.301958941558951-2.722603509726468,2.301958941558951Z"/>
</svg>